<svg xmlns="http://www.w3.org/2000/svg" width="517" height="445" viewBox="0 0 5170 4450" cursor="move" xmlns:v="https://vecta.io/nano"><path d="M440 4393c-404-4-370 13-370-185 0-171 1-172 119-182 75-7 96-16 71-31-7-4-10-479-10-1393 0-1525-4-1419 59-1444 16-6 200-10 500-10h475l519-511 560-540c66-45 137-61 236-53 136 10 166 29 365 224l536 527 365 358 260-6c143-3 363-2 488 1l229 7 24 28 24 28v1389l-10 1395c-24 15-5 23 69 30 113 10 115 12 119 184 4 131 3 139-17 158s-42 20-509 26H440zM3435 991l-407-400-262-253c-11-6-16-1-21 22-4 17-21 44-38 61-103 103-270 68-314-66l-10-30-169 165-419 411-250 247h1025 1025l-160-157z" fill="#4c5464"/><path d="M440 4393c-404-4-370 13-370-185 0-171 1-172 119-182 75-7 96-16 71-31-7-4-10-479-10-1393 0-1525-4-1419 59-1444 16-6 200-10 501-10 320 0 479-3 488-10 9-8 11-7 6 6-5 14 6 16 98 16 81 0 109-4 127-17 14-9 21-12 18-6-5 7 305 11 1021 11h1027l-160-157-405-398-265-258c-12-10-13-13-3-8 9 4 194 183 412 397l427 412c30 22 43 24 141 24 59 0 108-3 108-7s-35-44-77-88l-78-80 87 84 87 84 258-5c142-4 361-3 486 0l229 7 24 28 24 28v1389l-10 1395c-24 15-5 23 69 30 113 10 115 12 119 184 4 131 3 139-17 158s-42 20-509 26H440z" fill="#5aaf87"/><path d="M440 4393c-404-4-370 13-370-185 0-171 1-172 119-182 75-7 96-16 71-31-7-4-10-479-10-1393 0-1525-4-1419 59-1444 16-6 200-10 501-10 320 0 479-3 488-10 9-8 11-7 6 6-5 14 6 16 98 16 81 0 109-4 127-17 14-9 21-12 18-6-5 7 305 11 1021 11h1027l-160-157-405-398-265-258c-12-10-13-13-3-8 9 4 194 183 412 397l427 412c30 22 43 24 141 24 59 0 108-3 108-7s-35-44-77-88l-78-80 87 84 87 84 258-5c142-4 361-3 486 0l229 7 24 28 24 28v1389l-10 1395c-24 15-5 23 69 30 113 10 115 12 119 184 4 131 3 139-17 158s-42 20-509 26H440zm825-685c16-38 57-79 102-102 27-14 77-16 350-16 175 0 347 5 383 10 58 8 69 13 100 48 19 22 42 50 51 63l17 24 783 3 1126-3 343-7 30-31 30-31V2611l-13-1080c-6-13-25-33-40-45-33-24 183-22-2264-18l-1633 2-31 28-31 28-2 1060 4 1075c3 9 13 28 23 42 21 32 27 33 385 35l273 2 14-32z" fill="#d68156"/><path d="M1257 4033c-4-3-7-70-7-148 0-157 8-191 57-236 62-59 64-59 410-59 438 0 457 4 519 102 19 30 31 38 61 41l38 4-37 1-38 2v150 150h-498c-274 0-502-3-505-7zm2986-300c37-2 96-2 130 0s4 3-68 3c-71 0-99-1-62-3zM1997 1463h1265c348 1 64 2-632 2s-980-1-633-2z" fill="#fff"/><g fill="#fcf6f3"><path d="M1663 4393h1815c499 1 90 2-908 2s-1407-1-907-2zM200 4026c0-2 18-6 40-8s40 0 40 4c0 5-18 8-40 8s-40-2-40-4zm2068-293c12-2 32-2 45 0 12 2 2 4-23 4s-35-2-22-4zm-1078-728c-7-8-10-25-6-39 13-51 86-40 86 13 0 40-54 58-80 26zm113 8c-18-7-16-58 2-73 20-17 62-5 70 20 13 42-27 72-72 53zm-190-133c-92-21-137-80-130-169 4-58 23-83 57-74 33 9 40 26 28 65-26 87 21 121 172 121 153 1 260-42 260-102 0-35-20-53-97-86-69-30-93-64-93-132 0-92 65-148 161-140 71 6 99 21 99 52 0 33-11 37-65 25-56-13-93 1-113 42-19 40 4 90 49 107 80 30 96 40 109 70 37 91-50 188-198 220-59 12-190 13-239 1zm527-65c-21-26 3-65 39-65 87 0 181-41 181-79 0-15-10-17-75-17-71 1-76-1-106-30-58-58-50-165 17-224 29-25 43-30 85-30 27 0 63 7 79 15 37 19 67 76 76 143 6 45 10 52 37 61 16 6 47 11 68 11 71 0 94-50 70-151-11-46 2-69 38-69 48 0 54 17 43 131-13 139-18 144-156 144l-104-1-12 41c-15 50-77 110-127 124-57 16-138 14-153-4zm203-247c33-39 15-120-32-136-30-11-68 0-87 26-18 23-17 83 1 109 26 37 86 38 118 1zm1527 247c-21-26 3-65 39-65 59 0 130-21 155-47 31-30 36-70 9-57-10 5-44 9-75 9-51 0-61-3-89-32-26-26-33-42-37-86-8-101 48-167 142-167 65 0 100 21 126 76 27 55 33 173 12 242-16 53-77 114-130 130-57 17-137 15-152-3zm208-256c14-27 9-83-10-106-32-39-105-31-122 12-12 33-6 92 12 107 37 33 99 27 120-13zm-578 242c-48-10-72-25-108-65-75-86-54-277 27-251 36 11 43 30 26 70-8 21-15 57-15 80 0 36 5 48 31 69 26 22 40 26 96 26 161 0 185-62 147-385-13-113-13-139-2-162 16-34 52-41 79-17 19 17 19 28 13 233-6 222-19 307-52 345-43 47-160 75-242 57zm-610-150c-46-10-89-33-120-66-24-25-25-34-34-216-9-207-7-219 44-219 41 0 53 22 47 83l-17 164c-13 133-9 146 58 174 69 30 135 36 168 14 26-17 26-19 23-108l-4-92h40 40l3 85c6 156-21 191-145 189-37-1-84-4-103-8zm1362-8c-7-12-7-57-2-123 5-58 6-159 3-225-5-105-4-122 11-134 11-10 23-11 37-5 20 9 21 17 22 254l2 245-32 3c-23 2-34-2-41-15zm-1248-328c-4-8-3-26 0-40 5-19 13-25 35-25 39 0 57 23 43 55-9 19-19 25-42 25-18 0-33-6-36-15zm106-4c-17-34 4-63 43-59 29 3 32 6 32 38s-3 35-32 38c-24 2-34-2-43-17zm-500-21c-12-22 0-55 22-62 44-15 79 23 58 62-14 27-65 27-80 0zm450-65c-17-20-5-62 20-70 44-14 80 41 48 73-17 17-53 15-68-3zM1270 1153c8-3 21-10 28-16 9-7 11-6 6 7-3 9-16 16-28 15-14 0-16-2-6-6zm241 4c2-1 13-9 23-17 11-8 17-10 13-3s0 13 10 16 3 5-16 6c-19 0-32 0-30-2zm2081-4c1-5-74-82-168-173l-404-397-255-248c-12-10-13-13-3-8 9 4 194 183 412 397l427 412c30 22 31 24 11 24-12 0-21-3-20-7zm183-82l-80-86 85 82c47 45 94 83 105 86 16 4 14 5-5 5-18-1-46-23-105-87zm-3032 72c26-2 67-2 90 0s2 3-48 3c-49 0-68-1-42-3zm1700 0c70-2 184-2 255 0 70 1 12 3-128 3s-198-2-127-3zm1825 0c34-2 90-2 125 0 34 2 6 3-63 3s-97-1-62-3zm-2883-93c33-33 62-60 64-60 3 0-21 27-54 60s-62 60-64 60c-3 0 21-27 54-60zm2010-352l-240-243 243 240c225 223 247 245 239 245-1 0-110-109-242-242z"/><path d="M1675 760c77-77 142-140 145-140 2 0-58 63-135 140s-142 140-145 140c-2 0 58-63 135-140zm515-252l137-138c8 0-7 15-134 140l-138 135 135-137zm-70-183c91-91 167-165 170-165s-69 74-160 165-167 165-170 165 69-74 160-165zm382 146c-7-4 13-6 45-4 79 6 89 11 23 12-30 0-61-3-68-8zm-59-37l-28-25 33 22c17 13 32 24 32 26 0 8-11 1-37-23zm522-156l-160-163 163 160c150 148 167 165 159 165-1 0-74-73-162-162zM2517 43c18-2 50-2 70 0 21 2 7 4-32 4-38 0-55-2-38-4z"/></g></svg>