<svg xmlns="http://www.w3.org/2000/svg" xmlns:v="https://vecta.io/nano" width="521" height="451" viewBox="0 0 5210 4450" cursor="move"><path d="M1270 1197c0-12 152-164 806-809 324-321 328-323 494-322 171 1 158-8 585 411l544 528c98 94 179 178 180 188 1 15-12 17-138 17-120 0-142-3-157-17-15-15-15-18-2-21 9-2-47-63-146-160l-408-401-262-253c-11-6-16-1-21 22-4 17-21 44-38 61-103 103-270 68-314-66l-10-30-169 165c-481 469-669 659-655 662 12 3 12 6-3 21-15 14-37 17-152 17-103 0-134-3-134-13z" fill="#4c5464"/><path d="M633 3783c-45-4-55-8-75-36l-23-32 1-1099 2-1100 30-27 30-27 1943-4 1978 3c19 4 46 19 60 34l26 25 3 1098 3 1098-31 31-30 31-343 7-1155 3-814-3-18-25c-52-70-65-82-101-100-36-19-60-20-366-20-315 0-329 1-363 21-54 32-88 69-95 100l-7 29-301-2-354-5zm1155-984c13-8 10-9-17-5-18 3-46 6-62 6s-29 5-29 11c0 14 82 5 108-12zm-759-56c0-40-2-44-10-25-8 21-3 72 7 72 2 0 4-21 3-47zm889-103c11 0 13-3 6-8-6-4-15-32-21-62-10-54-10-54-12-15 0 22-8 51-17 63-14 20-14 22 0 22 9 0 17 8 17 18 1 16 2 16 6 0 2-10 12-18 21-18zm1504-97c3-49 2-95-3-103-5-9-9 22-9 76 0 56-4 94-12 102-9 9-9 12 4 12 12 0 16-17 20-87zm-813-40c1-34-3-65-9-68-6-4-10 26-9 82 1 101 17 88 18-14zm-451-57c-13-15-14-5-9 69l5 70 6-65c4-36 3-69-2-74zm1941-10c-9-8-10-2-5 29 3 22 7 56 8 75s3 6 5-29c3-41 0-68-8-75zm-434-215c-4-11-8-12-13-4-6 10-4 61 9 268 2 28 5-17 6-100 2-82 1-156-2-164zm128 35c2-38-15-61-25-34-3 7-3 63 0 123l6 110 9-80c5-44 9-98 10-119zm-1498 3c4-24 3-39-5-44-26-16-32 13-24 122l8 108 7-75c4-41 10-91 14-111z" fill="#5aaf87"/><path d="M440 4413c-404-4-370 13-370-185 0-171 1-172 119-182 75-7 96-16 71-31-7-4-10-479-10-1393 0-1525-4-1419 59-1444 16-6 200-10 501-10 426 0 477-1 495-16 11-9 14-10 8-2-7 8-13 18-13 22s46 8 103 8c80 0 108-4 126-17 14-9 21-12 18-6-5 7 306 11 1023 11l1023-11c-3-6 4-3 18 6 18 13 47 17 132 17 97 0 108-2 103-16s-4-15 9-4c13 10 70 12 273 8 141-4 360-3 485 0l229 7 24 28 24 28v1389l-10 1395c-24 15-5 23 69 30 113 10 115 12 119 184 4 131 3 139-17 158s-42 20-509 26H440zm1790-533c0-82 4-150 8-150s14 6 20 13c15 15 1361 23 1919 12l343-7 30-32 31-31-2-1056-13-1079c-6-13-24-33-39-44-33-24 236-22-2254-19l-1643 3-31 28-31 27-1 1050 3 1078c2 15 14 39 26 54l22 28 321 4c290 3 321 2 321-13 0-9 5-16 10-16 6 0 10 54 10 143 0 79 3 147 7 150 3 4 217 7 475 7h468v-150z" fill="#d68156"/><path d="M4243 3753c37-2 96-2 130 0s4 3-68 3c-71 0-99-1-62-3zm330-2078c0-33 2-45 4-27s2 45 0 60-4 0-4-33zm-2525-192h1245c342 1 62 2-623 2s-965-1-622-2z" fill="#b1b596"/><g fill="#fff"><path d="M1257 4053c-12-11-8-278 4-314 15-44 34-66 88-101l45-28h358c311 0 363 2 391 16 42 21 76 52 93 87 8 15 25 32 37 37 17 7 18 9 5 9-16 1-18 15-18 151v150h-498c-274 0-502-3-505-7zm2336-2882c1-4-7-17-18-27-25-23-11-16 29 14 26 20 27 22 7 22-11 0-20-4-18-9zm212-50l-49-56 54 51c30 29 62 54 70 57 10 4 9 5-5 5-12 0-41-24-70-57zm-2475 6c0-2 15-16 33-33l32-29-29 33c-28 30-36 37-36 29zm165-167c49-49 92-90 95-90 2 0-36 41-85 90-49 50-92 90-95 90-2 0 36-40 85-90zm1995-147l-165-168 168 165c155 153 172 170 164 170-1 0-76-75-167-167zm-205 50c-44-41-66-66-50-55 29 20 144 133 135 132-3-1-41-35-85-77zm-195-191c-38-39-45-48-21-31 29 22 91 90 80 88-2 0-29-26-59-57zM1970 498c41-45 50-53 50-45 0 2-21 23-47 47l-48 45 45-47zm532-7c-7-4 13-6 45-4 79 6 89 11 23 12-30 0-61-3-68-8zm-59-37l-28-25 33 22c17 13 32 24 32 26 0 8-11 1-37-23zm522-156l-160-163 163 160c150 148 167 165 159 165-1 0-74-73-162-162zm-665 117c19-19 36-35 39-35s-10 16-29 35-36 35-39 35 10-16 29-35zm485-42c-22-19-31-31-20-25 19 9 74 63 64 62-2-1-22-17-44-37zm-500-193c21-22 41-40 44-40s-13 18-34 40-41 40-44 40 13-18 34-40zm482-59c-41-26-46-36-10-17 17 9 35 20 38 26 8 13 6 12-28-9z"/><path d="M2518 63c17-2 47-2 65 0 17 2 3 4-33 4s-50-2-32-4zm-855 4350h1815c499 1 90 2-908 2s-1407-1-907-2zM218 4043c12-2 32-2 45 0 12 2 2 4-23 4s-35-2-22-4zm2055-290c15-2 37-2 50 0 12 2 0 4-28 4-27 0-38-2-22-4zm-1083-728c-31-38 27-96 65-65 18 15 20 51 3 68s-53 15-68-3zm113 8c-18-7-16-58 2-73 20-17 62-5 70 20 13 42-27 72-72 53zm-190-133c-92-21-137-80-130-169 4-58 23-83 57-74 33 9 40 26 28 65-26 87 21 121 172 121 153 1 260-42 260-102 0-35-20-53-97-86-69-30-93-64-93-132 0-92 65-148 161-140 71 6 99 21 99 52 0 33-11 37-65 25-56-13-93 1-113 42-19 40 4 90 49 107 80 30 96 40 109 70 37 91-50 188-198 220-59 12-190 13-239 1zm527-65c-21-26 3-65 39-65 57 0 134-22 158-46 41-41 31-50-52-50-71 1-76-1-106-30-58-58-50-165 17-224 29-25 43-30 85-30 27 0 63 7 79 15 37 19 67 76 76 143 6 45 10 52 37 61 16 6 47 11 68 11 71 0 94-50 70-151-11-46 2-69 38-69 48 0 54 17 43 131-13 139-18 144-156 144l-104-1-12 41c-15 50-77 110-127 124-57 16-138 14-153-4zm203-247c33-39 15-120-32-136-30-11-68 0-87 26-18 23-17 83 1 109 26 37 86 38 118 1zm1104 87c-81-28-119-97-95-171 11-32 18-40 42-42l29-4-7 52c-6 47-5 53 22 79 26 26 37 29 126 36 125 10 269-6 297-31 19-17 20-28 17-104l-3-85 37-3c46-4 52 12 43 118l-7 77 33 12c43 15 91 14 113-2 28-21 36-96 25-255-10-155-5-182 34-182 44 0 47 14 47 197 0 188-10 261-41 289-25 23-126 31-198 15-40-9-63-8-108 4-76 20-351 20-406 0zm-557-4c-46-10-89-33-120-66-24-25-25-34-34-216-9-207-7-219 44-219 41 0 53 22 47 83l-17 164c-13 133-9 146 58 174 69 30 135 36 168 14 26-17 26-19 23-108l-4-92h40 40l3 85c6 156-21 191-145 189-37-1-84-4-103-8zm1488-5c-54-15-92-38-112-69-10-15-18-79-26-204-13-203-9-223 39-223 47 0 55 20 46 113-5 45-9 127-9 181l-1 100 48 24c27 13 72 26 102 29 48 5 56 3 79-20 29-29 30-41 16-116-5-28-7-58-4-66 7-18 69-20 80-3s5 166-7 206c-6 19-22 38-39 47-35 18-146 19-212 1zm-1374-331c-4-8-3-26 0-40 5-19 13-25 35-25 39 0 57 23 43 55-9 19-19 25-42 25-18 0-33-6-36-15zm106-4c-17-34 4-63 43-59 29 3 32 6 32 38s-3 35-32 38c-24 2-34-2-43-17zm1397 13c-12-12-8-51 7-64 35-28 93 11 70 48-11 17-64 29-77 16zm103-14c-16-30 4-60 41-60 34 0 53 32 37 63-13 24-64 23-78-3zm-2000-20c-12-22 0-55 22-62 44-15 79 23 58 62-14 27-65 27-80 0z"/><path d="M3054 2306c-19-50 27-89 68-57 20 16 21 22 10 45-9 20-19 26-42 26-17 0-33-6-36-14zm106-1c-13-16-6-47 16-66 25-20 64 4 64 40 0 40-53 58-80 26zm-600-60c-17-20-5-62 20-70 44-14 80 41 48 73-17 17-53 15-68-3zm1500 0c-13-16-6-47 16-66 37-30 86 35 52 69-16 16-53 15-68-3zm-945-29c-16-12-18-19-10-43 18-50 85-40 85 13 0 13-9 28-19 34-26 13-33 13-56-4zM743 1163c26-2 67-2 90 0s2 3-48 3c-49 0-68-1-42-3zm1700 0c70-2 184-2 255 0 70 1 12 3-128 3s-198-2-127-3zm1825 0c34-2 90-2 125 0 34 2 6 3-63 3s-97-1-62-3zm-813-133c-66-66-117-120-115-120 3 0 59 54 125 120s117 120 115 120c-3 0-59-54-125-120zm-2060 30c21-22 41-40 44-40s-13 18-34 40-41 40-44 40 13-18 34-40zm2345-5c-24-25-42-45-39-45s25 20 49 45 42 45 39 45-25-20-49-45zM1685 770c71-71 132-130 135-130 2 0-54 59-125 130-71 72-132 130-135 130-2 0 54-58 125-130zm1505 5c-41-41-72-75-69-75 2 0 38 34 79 75s72 75 69 75c-2 0-38-34-79-75zm65-197l-100-103 103 100 102 102c0 8-12-4-105-99zm-315-55l-145-148 148 145 147 147c0 8-16-7-150-144zm-765 17c66-66 122-120 125-120 2 0-49 54-115 120s-122 120-125 120c-2 0 49-54 115-120zm-45-205c80-80 147-145 150-145 2 0-60 65-140 145s-147 145-150 145c-2 0 60-65 140-145z"/></g></svg>